<?xml version="1.0" encoding="UTF-8" standalone="no"?>
<svg
   data-name="Layer 1"
   width="794.1218"
   height="505.34514"
   viewBox="0 0 794.1218 505.34514"
   version="1.1"
   id="svg22"
   sodipodi:docname="undraw_portfolio_update_re_jqnp.svg"
   xml:space="preserve"
   inkscape:version="1.3.2 (091e20e, 2023-11-25)"
   xmlns:inkscape="http://www.inkscape.org/namespaces/inkscape"
   xmlns:sodipodi="http://sodipodi.sourceforge.net/DTD/sodipodi-0.dtd"
   xmlns="http://www.w3.org/2000/svg"
   xmlns:svg="http://www.w3.org/2000/svg"><defs
     id="defs22" /><sodipodi:namedview
     id="namedview22"
     pagecolor="#ffffff"
     bordercolor="#000000"
     borderopacity="0.25"
     inkscape:showpageshadow="2"
     inkscape:pageopacity="0.0"
     inkscape:pagecheckerboard="0"
     inkscape:deskcolor="#d1d1d1"
     inkscape:zoom="0.96102398"
     inkscape:cx="392.81018"
     inkscape:cy="321.53204"
     inkscape:window-width="1728"
     inkscape:window-height="1387"
     inkscape:window-x="0"
     inkscape:window-y="25"
     inkscape:window-maximized="0"
     inkscape:current-layer="svg22" /><path
     d="M247.4579,701.19842c-12.25095-1.00787-23.067-9.87117-29.218-20.51384-2.06275-3.569-3.47609-8.25063-1.14018-11.64717a6.40928,6.40928,0,0,1,11.315,1.47119,62.04539,62.04539,0,0,1-.96485-12.64086c.09416-3.586.77176-7.64052,3.75358-9.6347,3.45928-2.31349,8.44549-.47663,10.96167,2.83815s3.19894,7.62671,3.80283,11.74426a10.83041,10.83041,0,0,1,12.03865-13.65713c5.06672.76515,9.03581,5.1519,10.58457,10.03641s1.06522,10.18071.06842,15.207c-1.16883,5.89373-3.06582,11.74062-6.481,16.68417s-8.488,8.929-14.37353,10.13822Z"
     fill="#f2f2f2"
     id="path1"
     transform="translate(-202.9391 -197.32743)" /><path
     d="M997.0609,303.32743a106.03391,106.03391,0,0,1-71,100.08c-.66016.23-1.33008.46-2,.67v-107.71h-138.77c.04-.67.08984-1.34.1499-2H924.0609v-21.04a5.002,5.002,0,0,0-5-5H790.98082c.23-.67.47021-1.34.73-2a106.01022,106.01022,0,0,1,205.3501,37Z"
     fill="#f2f2f2"
     id="path2"
     transform="translate(-202.9391 -197.32743)" /><path
     d="M919.0609,266.32743h-487a7.00778,7.00778,0,0,0-7,7v330a7.00778,7.00778,0,0,0,7,7h487a7.00779,7.00779,0,0,0,7-7v-330A7.00778,7.00778,0,0,0,919.0609,266.32743Zm5,337a5.002,5.002,0,0,1-5,5h-487a5.002,5.002,0,0,1-5-5v-330a5.002,5.002,0,0,1,5-5h487a5.002,5.002,0,0,1,5,5Z"
     fill="#3f3d56"
     id="path3"
     transform="translate(-202.9391 -197.32743)" /><rect
     x="223.1218"
     y="97.03998"
     width="499"
     height="2"
     fill="#3f3d56"
     id="rect3" /><circle
     cx="240.1218"
     cy="84"
     r="6"
     fill="#3f3d56"
     id="circle3" /><circle
     cx="257.3718"
     cy="84"
     r="6"
     fill="#3f3d56"
     id="circle4" /><circle
     cx="274.6218"
     cy="84"
     r="6"
     fill="#3f3d56"
     id="circle5" /><path
     d="M562.0609,335.32743h-88a7.00778,7.00778,0,0,0-7,7v88a7.00778,7.00778,0,0,0,7,7h88a7.00779,7.00779,0,0,0,7-7v-88A7.00778,7.00778,0,0,0,562.0609,335.32743Zm5,95a5.002,5.002,0,0,1-5,5h-88a5.002,5.002,0,0,1-5-5v-88a5.002,5.002,0,0,1,5-5h88a5.002,5.002,0,0,1,5,5Z"
     fill="#3f3d56"
     id="path5"
     transform="translate(-202.9391 -197.32743)" /><path
     d="M720.0609,335.82743h-88a6.51259,6.51259,0,0,0-6.5,6.5v88a6.51259,6.51259,0,0,0,6.5,6.5h88a6.51259,6.51259,0,0,0,6.5-6.5v-88A6.51259,6.51259,0,0,0,720.0609,335.82743Z"
     fill="#cfff04"
     id="path6"
     transform="translate(-202.9391 -197.32743)" /><path
     d="M878.0609,335.82743h-88a6.51259,6.51259,0,0,0-6.5,6.5v88a6.51259,6.51259,0,0,0,6.5,6.5h88a6.51259,6.51259,0,0,0,6.5-6.5v-88A6.51259,6.51259,0,0,0,878.0609,335.82743Z"
     fill="#e6e6e6"
     id="path7"
     transform="translate(-202.9391 -197.32743)" /><path
     d="M562.0609,467.82743h-88a6.51259,6.51259,0,0,0-6.5,6.5v88a6.51259,6.51259,0,0,0,6.5,6.5h88a6.51259,6.51259,0,0,0,6.5-6.5v-88A6.51259,6.51259,0,0,0,562.0609,467.82743Z"
     fill="#e6e6e6"
     id="path8"
     transform="translate(-202.9391 -197.32743)" /><path
     d="M720.0609,467.82743h-88a6.51259,6.51259,0,0,0-6.5,6.5v88a6.51259,6.51259,0,0,0,6.5,6.5h88a6.51259,6.51259,0,0,0,6.5-6.5v-88A6.51259,6.51259,0,0,0,720.0609,467.82743Z"
     fill="#cfff04"
     id="path9"
     transform="translate(-202.9391 -197.32743)" /><path
     d="M878.0609,467.82743h-88a6.51259,6.51259,0,0,0-6.5,6.5v88a6.51259,6.51259,0,0,0,6.5,6.5h88a6.51259,6.51259,0,0,0,6.5-6.5v-88A6.51259,6.51259,0,0,0,878.0609,467.82743Z"
     fill="#e6e6e6"
     id="path10"
     transform="translate(-202.9391 -197.32743)" /><path
     d="M540.5609,482.32743h-88a6.50745,6.50745,0,0,1-6.5-6.5v-88a6.50744,6.50744,0,0,1,6.5-6.5h88a6.50745,6.50745,0,0,1,6.5,6.5v88A6.50745,6.50745,0,0,1,540.5609,482.32743Z"
     fill="#cfff04"
     id="path11"
     transform="translate(-202.9391 -197.32743)" /><polygon
     points="202.746 492.088 214.466 488.491 206.17 441.573 188.872 446.881 202.746 492.088"
     fill="#a0616a"
     id="polygon11"
     style="fill:#deaa87" /><path
     d="M403.482,680.85789h38.53073a0,0,0,0,1,0,0v14.88687a0,0,0,0,1,0,0H418.36887A14.88686,14.88686,0,0,1,403.482,680.8579v0A0,0,0,0,1,403.482,680.85789Z"
     fill="#2f2e41"
     id="path12"
     transform="translate(825.89112 1024.95669) rotate(162.93912)" /><polygon
     points="102.748 492.358 115.008 492.357 120.84 445.069 102.746 445.07 102.748 492.358"
     fill="#a0616a"
     id="polygon12"
     style="fill:#deaa87" /><path
     d="M303.06,686.18167h38.53073a0,0,0,0,1,0,0v14.88687a0,0,0,0,1,0,0H317.94689A14.88686,14.88686,0,0,1,303.06,686.18168v0a0,0,0,0,1,0,0Z"
     fill="#2f2e41"
     id="path13"
     transform="translate(441.74335 1189.90807) rotate(179.99738)" /><path
     d="M304.80743,552.60788a9.16224,9.16224,0,0,1,.318-14.04558l9.50536-119.69459,19.33086,4.8297L318.48407,540.45594a9.21188,9.21188,0,0,1-13.67664,12.15194Z"
     fill="#a0616a"
     id="path14"
     transform="translate(-202.9391 -197.32743)"
     style="fill:#deaa87" /><circle
     cx="140.57921"
     cy="150.55523"
     r="24.56103"
     fill="#a0616a"
     id="circle14"
     style="fill:#deaa87" /><path
     d="M322.16166,415.18605c-5.54194-7.60815-5.71269-18.08683.25708-25.36412,3.89587-4.74914,10.41248-8.54951,21.29248-8.54951,29,0,40,23,40,23s12,22,5,42-7,22-7,22l-46-4S343.47142,444.44079,322.16166,415.18605Z"
     fill="#ccc"
     id="path15"
     transform="translate(-202.9391 -197.32743)" /><path
     d="M307.9766,435.09469l9.90967-32.4209a15.50189,15.50189,0,0,1,21.93018-9.24512h0a15.53,15.53,0,0,1,7.08789,20.00977L334.306,442.12984Z"
     fill="#ccc"
     id="path16"
     transform="translate(-202.9391 -197.32743)" /><path
     d="M380.71122,463.27242l39,202-21,6-51-133-23,136-22,3s-9.65032-179.945,33-213Z"
     fill="#2f2e41"
     id="path17"
     transform="translate(-202.9391 -197.32743)" /><path
     d="M436.84246,453.80485a10.52712,10.52712,0,0,0-.96265,1.3493l-49.53505,2.40166-9.53834-29.11951-16.56185,7.87143,15.58776,43.3713,61.26206-11.98076a10.49579,10.49579,0,1,0-.25193-13.89342Z"
     fill="#a0616a"
     id="path18"
     transform="translate(-202.9391 -197.32743)"
     style="fill:#deaa87" /><path
     d="M353.31425,407.17672a15.50085,15.50085,0,0,1,16.3623-17.28223h0a15.52954,15.52954,0,0,1,14.53467,15.47168v31.335l-26.936,4.14453Z"
     fill="#ccc"
     id="path19"
     transform="translate(-202.9391 -197.32743)" /><path
     d="M348.91975,372.66645c-3.68637-.01605-6.53017-3.89721-6.36494-7.57991s2.63867-6.92285,5.61866-9.09293,6.47479-3.49191,9.798-5.08739,6.61743-3.58561,8.66924-6.64822a14.71557,14.71557,0,0,0,1.02332-13.50438,21.66865,21.66865,0,0,0-9.3332-10.22418,28.37777,28.37777,0,0,0-37.60707,8.25038l-4.20808,11.45787c-4.28786,5.15613-4.968,12.81333-2.33217,18.97968s8.24814,10.80579,14.58112,13.0114a35.79392,35.79392,0,0,0,19.8411.59488"
     fill="#2f2e41"
     id="path20"
     transform="translate(-202.9391 -197.32743)" /><path
     d="M326.47317,334.50613c-1.80894-2.89931-4.94439-4.74325-8.18587-5.82543a25.72431,25.72431,0,0,0-33.83244,23.00283c-.34357,6.31437,1.63365,12.48912,2.79545,18.70518s1.39291,13.08161-2.03446,18.396c-2.61053,4.0478-6.96387,6.59634-11.26083,8.77251-3.58128,1.81371-7.45507,3.51578-11.45314,3.1544s-8.01642-3.52812-7.91033-7.54108a32.0544,32.0544,0,0,0-2.68163,9.08033c-.28127,3.15593.49659,6.56125,2.77606,8.76193,3.3131,3.19859,8.56255,2.9646,13.1157,2.27441,9.85694-1.49417,19.83818-4.29543,27.62552-10.52031s12.95465-16.47494,10.90388-26.23127c-.85666-4.07547-2.86993-7.796-4.49677-11.62968s-2.89692-8.027-2.14959-12.124a14.73513,14.73513,0,0,1,7.49255-9.98176,19.60142,19.60142,0,0,1,12.52266-1.899c2.79906.45932,6.29406,1.17251,7.95419-1.12742a4.50752,4.50752,0,0,0-.09367-4.80858,13.24754,13.24754,0,0,0-3.59259-3.5596"
     fill="#2f2e41"
     id="path21"
     transform="translate(-202.9391 -197.32743)" /><path
     d="M511.4238,702.67257h-307.294a1.19069,1.19069,0,1,1,0-2.38137h307.294a1.19069,1.19069,0,1,1,0,2.38137Z"
     fill="#3f3d56"
     id="path22"
     transform="translate(-202.9391 -197.32743)" /><path
     d="m 294.99204,199.38052 c -0.45415,0 -0.92294,0.0235 -1.40639,0.0615 -12.38205,0.97568 -9.09755,14.08437 -9.28799,18.45294 -0.22269,3.19953 -0.87899,5.72223 -3.07647,8.84852 -2.59303,3.07939 -6.23204,8.0574 -7.9578,13.24638 -0.81453,2.43773 -1.20129,4.93406 -0.84089,7.29269 a 1.2423069,1.2423069 0 0 0 -0.32231,0.39555 c -0.76179,0.78523 -1.31847,1.75798 -1.94257,2.45824 -0.58305,0.58307 -1.42102,0.78231 -2.33519,1.172 -0.91707,0.39846 -1.9279,0.78815 -2.53148,1.99237 -0.2637,0.55376 -0.39848,1.1544 -0.38676,1.76384 0,0.58306 0.0791,1.17199 0.16115,1.57047 0.16994,1.16906 0.33987,2.13301 0.1172,2.84207 -0.72956,1.99237 -0.8204,3.35481 -0.31058,4.34807 0.50982,0.97861 1.56753,1.37709 2.75417,1.76092 2.37328,0.58599 5.59624,0.39554 8.12774,1.75797 2.71315,1.36536 5.46732,1.96308 7.6648,1.37708 1.54116,-0.33986 2.84207,-1.35951 3.53941,-2.77174 1.71988,-0.009 3.60386,-0.78817 6.62172,-0.97861 2.04805,-0.16994 4.61177,0.7823 7.55053,0.58599 0.0732,0.39262 0.18459,0.58014 0.33401,0.97568 l 0.009,0.009 c 1.14562,2.27952 3.26106,3.31672 5.52008,3.138 2.25899,-0.17579 4.66451,-1.57047 6.61292,-3.82654 1.84881,-2.24143 4.93115,-3.17609 6.96748,-4.40375 1.01962,-0.58306 1.84294,-1.37416 1.90155,-2.49926 0.0674,-1.17199 -0.586,-2.37621 -2.092,-4.03163 v -0.28422 l -0.009,-0.009 c -0.49809,-0.58599 -0.7325,-1.56753 -0.99034,-2.71314 -0.24904,-1.17493 -0.53326,-2.30296 -1.44154,-3.06476 h -0.009 c -0.17286,-0.15821 -0.3604,-0.19631 -0.55084,-0.39554 a 1.045999,1.045999 0 0 0 -0.55669,-0.18753 c 1.26281,-3.7445 0.77351,-7.47141 -0.50689,-10.82331 -1.56167,-4.13125 -4.29241,-7.72925 -6.37269,-10.20507 -2.33224,-2.94462 -4.61761,-5.73395 -4.57075,-9.86814 0.0762,-6.30529 0.69148,-17.9695 -10.3838,-17.98708 z m 1.54996,9.97655 h 0.038 c 0.62407,0 1.16027,0.18165 1.7111,0.58013 0.55669,0.39554 0.96689,0.97275 1.28333,1.56168 0.30765,0.75885 0.46294,1.34484 0.48637,2.12129 0,-0.0587 0.0177,-0.1172 0.0177,-0.1758 v 0.30764 a 0.25197735,0.25197735 0 0 1 -0.0117,-0.0615 l -0.0118,-0.0704 a 5.2944542,5.2944542 0 0 1 -0.43949,2.06855 2.7922605,2.7922605 0 0 1 -0.62409,0.98156 2.080278,2.080278 0 0 0 -0.25784,-0.12306 c -0.30472,-0.13185 -0.58014,-0.18753 -0.83211,-0.38968 a 3.8441194,3.8441194 0 0 0 -0.6446,-0.19338 c 0.1465,-0.1758 0.42778,-0.38969 0.53619,-0.58014 0.15529,-0.37504 0.24025,-0.77351 0.25784,-1.17786 v -0.0587 a 3.5452626,3.5452626 0 0 0 -0.17873,-1.17199 c -0.13185,-0.39262 -0.29593,-0.586 -0.53619,-0.9757 -0.24611,-0.19336 -0.4893,-0.38675 -0.7823,-0.38675 h -0.0469 c -0.27249,0 -0.51569,0.0879 -0.76767,0.38675 a 2.3439752,2.3439752 0 0 0 -0.60063,0.97862 3.4573635,3.4573635 0 0 0 -0.2637,1.17199 v 0.0557 c 0.007,0.26076 0.0235,0.52446 0.0587,0.7823 -0.56548,-0.1963 -1.28334,-0.39555 -1.77849,-0.59186 a 4.7904995,4.7904995 0 0 1 -0.0527,-0.58598 v -0.0587 a 5.1919052,5.1919052 0 0 1 0.4395,-2.25022 c 0.24025,-0.64459 0.67975,-1.18956 1.25988,-1.56167 a 2.8860195,2.8860195 0 0 1 1.7404,-0.58599 z m -8.67858,0.17286 h 0.10549 c 0.41606,0 0.79108,0.14064 1.16906,0.39554 0.42777,0.37798 0.7735,0.84383 1.00791,1.36244 0.26369,0.58307 0.4102,1.17199 0.44829,1.9543 v 0.0118 c 0.0205,0.39262 0.0175,0.58599 -0.007,0.77938 v 0.23439 c -0.0879,0.0205 -0.16409,0.0528 -0.24319,0.0704 -0.44536,0.16115 -0.80282,0.39554 -1.15148,0.586 0.0351,-0.26371 0.038,-0.52741 0.009,-0.78231 v -0.0439 c -0.0351,-0.38969 -0.11721,-0.58599 -0.24027,-0.97568 a 1.7960711,1.7960711 0 0 0 -0.48637,-0.7823 0.7266323,0.7266323 0 0 0 -0.53618,-0.18752 h -0.0615 c -0.20803,0.0177 -0.3809,0.11721 -0.54498,0.38676 a 1.6173429,1.6173429 0 0 0 -0.3516,0.79109 2.7658908,2.7658908 0 0 0 -0.0674,0.96689 v 0.0439 c 0.0351,0.39554 0.10841,0.586 0.2344,0.97861 0.13477,0.39262 0.28713,0.58599 0.48637,0.78524 0.0293,0.0264 0.0587,0.0527 0.0996,0.0704 -0.20511,0.167 -0.34281,0.20509 -0.51568,0.39848 a 0.8907106,0.8907106 0 0 1 -0.38383,0.19923 7.6765195,7.6765195 0 0 1 -0.80574,-1.17786 5.1919052,5.1919052 0 0 1 -0.45415,-1.95428 5.1538156,5.1538156 0 0 1 0.23441,-1.95723 4.1898558,4.1898558 0 0 1 0.82918,-1.56752 c 0.37504,-0.38969 0.76179,-0.586 1.22472,-0.586 z m 4.01407,4.99852 c 0.97275,0 2.14766,0.19045 3.56284,1.16906 0.85847,0.586 1.53236,0.78816 3.08233,1.37123 h 0.009 c 0.74714,0.39849 1.18663,0.77937 1.40052,1.16906 v -0.38383 a 1.6730123,1.6730123 0 0 1 0.0469,1.37709 c -0.36039,0.90828 -1.51186,1.88398 -3.11456,2.46703 v 0.005 c -0.78523,0.39554 -1.4679,0.97567 -2.27073,1.36243 -0.80866,0.39555 -1.72282,0.85555 -2.96512,0.78231 a 3.3372348,3.3372348 0 0 1 -1.31263,-0.19631 10.448269,10.448269 0 0 1 -0.94344,-0.58013 c -0.57136,-0.39555 -1.06358,-0.97276 -1.79315,-1.36244 v -0.0147 h -0.0147 c -1.172,-0.72078 -1.80487,-1.50015 -2.00996,-2.08028 -0.2051,-0.78523 -0.0147,-1.37708 0.56549,-1.75798 0.65631,-0.39555 1.11338,-0.79402 1.41516,-0.98447 0.30472,-0.21681 0.41899,-0.29885 0.51568,-0.38383 h 0.007 v -0.009 c 0.49517,-0.59186 1.27748,-1.37709 2.45824,-1.76092 0.40728,-0.10548 0.86143,-0.19044 1.36538,-0.19044 z m 8.2039,6.27601 c 1.04894,4.15175 3.50426,10.18164 5.0835,13.10574 0.83798,1.56461 2.50512,4.86082 3.22883,8.86023 0.45708,-0.0147 0.96689,0.0528 1.50308,0.18752 1.89277,-4.89598 -1.59976,-10.15821 -3.19073,-11.62025 -0.64461,-0.586 -0.67977,-0.98156 -0.3604,-0.98156 1.72868,1.56462 3.99941,4.60593 4.82273,8.07793 0.3809,1.56754 0.4688,3.23469 0.0616,4.89306 0.19631,0.082 0.39553,0.17579 0.60064,0.19631 3.02372,1.56459 4.14005,2.74831 3.60386,4.50336 v -0.12599 c -0.17578,-0.009 -0.35159,0 -0.52738,0 h -0.0468 c 0.44242,-1.3683 -0.53326,-2.41722 -3.12042,-3.58628 -2.68091,-1.172 -4.82273,-0.98447 -5.18605,1.36243 -0.0235,0.12599 -0.038,0.19337 -0.0528,0.39554 -0.19923,0.0674 -0.40727,0.15529 -0.61236,0.18753 -1.25989,0.78522 -1.93963,1.96014 -2.32347,3.47787 -0.3809,1.56167 -0.49809,3.38705 -0.60064,5.47611 v 0.009 c -0.0587,0.97862 -0.4981,2.45532 -0.93467,3.95546 -4.39495,3.14094 -10.48928,4.5063 -15.66947,0.97862 a 7.7497678,7.7497678 0 0 0 -1.17784,-1.56167 4.2484552,4.2484552 0 0 0 -0.80575,-0.97569 c 0.53326,0 0.99034,-0.0879 1.36244,-0.19631 a 1.801931,1.801931 0 0 0 0.92,-0.9786 c 0.31645,-0.78231 0,-2.0422 -1.01083,-3.40756 -1.01084,-1.3683 -2.7278,-2.91531 -5.23879,-4.45648 -1.84587,-1.17198 -2.88895,-2.54907 -3.36946,-4.09023 -0.48344,-1.56461 -0.41898,-3.17903 -0.0439,-4.81981 0.71784,-3.13506 2.55786,-6.18223 3.73277,-8.09551 0.31351,-0.19044 0.10841,0.39556 -1.19542,2.85381 -1.16027,2.2004 -3.34016,7.31612 -0.35746,11.29208 a 23.800138,23.800138 0 0 1 1.89569,-8.42658 c 1.65249,-3.7445 5.10694,-10.26661 5.37943,-15.43507 0.14064,0.10547 0.6358,0.39553 0.84676,0.59184 0.63873,0.38968 1.11338,0.97569 1.72867,1.36243 0.6153,0.58893 1.39761,0.98154 2.56666,0.98154 0.11427,0.009 0.21975,0.0177 0.3223,0.0177 1.20714,0 2.13888,-0.39261 2.92118,-0.78522 0.84969,-0.39262 1.52357,-0.97861 2.16817,-1.17199 h 0.0147 c 1.3683,-0.39555 2.44653,-1.17785 3.05889,-2.05097 z m 6.402,26.24665 c 0.10841,1.75798 1.00498,3.64781 2.58422,4.03457 1.72283,0.39262 4.20157,-0.97568 5.24758,-2.24143 l 0.61823,-0.0293 c 0.92294,-0.0205 1.69058,0.0293 2.48168,0.78524 l 0.009,0.009 c 0.60943,0.58306 0.89364,1.55288 1.14562,2.56666 0.24906,1.17198 0.45122,2.28537 1.19836,3.12335 1.42396,1.54409 1.88983,2.65455 1.86347,3.34015 l 0.009,-0.0205 v 0.0527 l -0.009,-0.0351 c -0.0439,0.76764 -0.54205,1.16026 -1.45913,1.74333 -1.84588,1.17491 -5.11573,2.08613 -7.19893,4.60004 -1.81072,2.15939 -4.01406,3.34017 -5.96543,3.4896 -1.94549,0.15529 -3.62437,-0.586 -4.61177,-2.63111 l -0.0147,-0.009 c -0.61529,-1.17198 -0.3516,-3.00321 0.16409,-4.95165 0.51566,-1.95721 1.25402,-3.93788 1.35656,-5.55815 0.10842,-2.092 0.22268,-3.91151 0.57135,-5.31496 0.3516,-1.36244 0.90243,-2.33519 1.8781,-2.88309 l 0.13186,-0.0645 z m -31.68469,0.14358 h 0.0293 c 0.15528,0 0.30763,0.0147 0.45999,0.041 1.10168,0.16115 2.06856,0.97569 2.99737,2.20336 l 2.66626,4.87545 0.009,0.009 c 0.71199,1.56167 2.20919,3.11748 3.48373,4.79635 1.27162,1.75213 2.25608,3.3138 2.13595,4.60006 v 0.0175 c -0.167,2.1799 -1.40639,3.36362 -3.29621,3.79139 -1.88983,0.39554 -4.45355,0.005 -7.01728,-1.3595 -2.8362,-1.57047 -6.20567,-1.37416 -8.37093,-1.76384 -1.08115,-0.19339 -1.78727,-0.58601 -2.11836,-1.172 -0.32229,-0.58599 -0.33108,-1.76384 0.36039,-3.60386 v -0.0118 l 0.007,-0.009 c 0.3428,-0.97862 0.0879,-2.20335 -0.0791,-3.27572 -0.16115,-1.17492 -0.24318,-2.08028 0.126,-2.75417 0.46878,-0.97861 1.16027,-1.17199 2.02167,-1.56167 0.86141,-0.39555 1.87517,-0.59186 2.68092,-1.37708 h 0.005 v -0.007 c 0.75008,-0.78523 1.30383,-1.76091 1.95722,-2.45531 0.55668,-0.58892 1.11339,-0.98447 1.94257,-0.98447 z m 20.97564,-26.58654 c -1.27454,0.58892 -2.76881,1.56752 -4.35979,1.56752 -1.58804,0 -2.84207,-0.78229 -3.75035,-1.36536 -0.45123,-0.39262 -0.82039,-0.78523 -1.09289,-0.98154 -0.48051,-0.39261 -0.42192,-0.97567 -0.2168,-0.97567 0.31935,0.0468 0.37795,0.3926 0.58305,0.58599 0.28128,0.19337 0.62995,0.58599 1.05478,0.97568 0.85557,0.58599 1.99239,1.36829 3.41928,1.36829 1.42104,0 3.08527,-0.7823 4.0961,-1.36537 0.57134,-0.39553 1.30383,-0.9786 1.89862,-1.36828 0.45707,-0.39849 0.43656,-0.78231 0.81746,-0.78231 0.37503,0.0469 0.0996,0.39261 -0.43071,0.97275 a 23.72396,23.72396 0 0 1 -2.02167,1.37123 z m -3.17022,-4.63816 v -0.0645 c -0.0177,-0.0587 0.038,-0.12305 0.085,-0.1465 0.21681,-0.12598 0.52739,-0.0791 0.76179,0.0118 0.18459,0 0.46879,0.1963 0.43949,0.39553 -0.0175,0.14358 -0.24904,0.19338 -0.39554,0.19338 -0.16115,0 -0.26955,-0.12599 -0.41312,-0.19923 -0.15237,-0.0527 -0.42778,-0.0235 -0.47759,-0.19045 z m -1.61442,0 c -0.0587,0.16995 -0.33108,0.14359 -0.48637,0.19339 -0.1377,0.0732 -0.25198,0.19923 -0.41019,0.19923 -0.1465,0 -0.3809,-0.0587 -0.39848,-0.19923 -0.0293,-0.19339 0.25784,-0.38969 0.4395,-0.38969 0.23439,-0.0909 0.53911,-0.1377 0.75886,-0.0147 0.0557,0.0264 0.10547,0.0879 0.0879,0.1465 v 0.0587 h 0.009 z"
     id="path1-7"
     style="opacity:1;stroke-width:2.92996" /><path
     d="m 479.34765,188.09269 h 6.15199 a 0.54000448,0.54000448 0 0 0 0.54,-0.53709 v -5.47844 a 0.54000448,0.54000448 0 0 0 -0.54,-0.54 h -6.15199 a 0.53710123,0.53710123 0 0 0 -0.53711,0.5371 v 5.48134 c 0,0.29613 0.24097,0.53709 0.53711,0.53709 m -8.57621,-15.76464 h 6.14909 a 0.54000448,0.54000448 0 0 0 0.54001,-0.54001 v -5.48132 a 0.54000448,0.54000448 0 0 0 -0.54001,-0.53711 h -6.14909 a 0.53710123,0.53710123 0 0 0 -0.53709,0.53711 v 5.48132 c 0,0.29614 0.23806,0.53711 0.53709,0.53711 m 0,7.88523 h 6.14909 a 0.54290773,0.54290773 0 0 0 0.54001,-0.54001 v -5.47844 a 0.54000448,0.54000448 0 0 0 -0.54001,-0.53709 h -6.14909 a 0.53710123,0.53710123 0 0 0 -0.53709,0.53709 v 5.47844 c 0,0.29614 0.23806,0.53711 0.53709,0.54001 m -8.50652,0 h 6.1549 a 0.54000448,0.54000448 0 0 0 0.53419,-0.54001 v -5.47844 a 0.53710123,0.53710123 0 0 0 -0.5371,-0.53709 h -6.14908 a 0.53710123,0.53710123 0 0 0 -0.5371,0.53709 v 5.47844 c 0,0.29614 0.24097,0.53711 0.5371,0.54001 m -8.60524,0 h 6.15199 a 0.54000448,0.54000448 0 0 0 0.5371,-0.54001 v -5.47844 a 0.53710123,0.53710123 0 0 0 -0.5371,-0.53709 h -6.15199 a 0.54000448,0.54000448 0 0 0 -0.54001,0.53709 v 5.47844 c 0,0.29614 0.24389,0.53711 0.54001,0.54001 m 17.10885,7.88231 h 6.14909 a 0.54000448,0.54000448 0 0 0 0.54001,-0.53709 v -5.47844 a 0.54000448,0.54000448 0 0 0 -0.54001,-0.54 h -6.14909 a 0.53710123,0.53710123 0 0 0 -0.53709,0.5371 v 5.48134 c 0,0.29613 0.23806,0.53709 0.53709,0.53709 m -8.50652,0 h 6.1549 a 0.53710123,0.53710123 0 0 0 0.53419,-0.53709 v -5.47844 a 0.53710123,0.53710123 0 0 0 -0.53419,-0.54 h -6.1549 a 0.53710123,0.53710123 0 0 0 -0.53419,0.5371 v 5.48134 c 0,0.29613 0.24097,0.53709 0.5371,0.53709 m -8.60524,0 h 6.15199 a 0.53710123,0.53710123 0 0 0 0.5371,-0.53709 v -5.47844 a 0.53710123,0.53710123 0 0 0 -0.53419,-0.54 h -6.1549 a 0.54000448,0.54000448 0 0 0 -0.54001,0.54 v 5.47844 c 0,0.29613 0.24389,0.53709 0.54001,0.53709 m -8.47749,0 h 6.15489 a 0.53710123,0.53710123 0 0 0 0.53421,-0.53709 v -5.47844 a 0.53710123,0.53710123 0 0 0 -0.53421,-0.54 h -6.15489 a 0.53710123,0.53710123 0 0 0 -0.53419,0.5371 v 5.48134 c 0,0.29613 0.23806,0.53709 0.53709,0.53709 m 62.55343,-3.44905 c -0.18871,-0.14807 -1.95098,-1.48066 -5.67295,-1.48066 -0.9813,0.003 -1.9626,0.0871 -2.93228,0.25258 -0.72,-4.93552 -4.79907,-7.34522 -4.98198,-7.44974 l -0.99872,-0.57774 -0.65613,0.94936 c -0.82453,1.27162 -1.4226,2.6768 -1.77679,4.15164 -0.66774,2.81616 -0.26129,5.46392 1.17,7.72556 -1.72743,0.96387 -4.50003,1.19904 -5.06325,1.21936 h -45.89748 a 2.1803406,2.1803406 0 0 0 -2.17744,2.17163 33.027371,33.027371 0 0 0 2.00905,11.79301 c 1.58227,4.14584 3.9339,7.20005 6.99682,9.06974 3.42584,2.09906 9.00009,3.301 15.31465,3.301 2.8539,0.009 5.69908,-0.24968 8.50653,-0.77226 a 35.559005,35.559005 0 0 0 11.09912,-4.03262 c 2.84518,-1.64614 5.40004,-3.73939 7.57748,-6.20134 3.63487,-4.11681 5.80069,-8.70104 7.412,-12.7743 h 0.64162 c 3.98326,0 6.43069,-1.59388 7.7807,-2.92938 0.89711,-0.85065 1.59679,-1.88711 2.0526,-3.0368 l 0.28452,-0.83613 z"
     id="path1-72"
     style="stroke-width:2.90325" /><path
     d="m 620.05987,202.49077 3.39048,-4.23673 -10.91462,-8.73116 10.91462,-8.73114 -3.39048,-4.23674 -13.56189,10.84952 a 2.7123795,2.7123795 0 0 0 0,4.23674 z m 25.08951,-25.93577 -3.39047,4.23674 10.91461,8.73114 -10.91461,8.73116 3.39047,4.23673 13.5619,-10.84951 a 2.7123795,2.7123795 0 0 0 0,-4.23674 z m -4.47271,-10.85765 -10.84951,48.82282 -5.29729,-1.17717 10.84952,-48.82283 z"
     id="path1-1"
     style="stroke-width:2.71238" /><g
     id="g22"
     transform="matrix(2.5,0,0,2.5,283.24882,291.29221)"><path
       d="m 9,9 h 6 v 6 H 9 Z"
       id="path1-6" /><path
       d="M 20,6 C 20,4.897 19.103,4 18,4 H 16 V 2 H 14 V 4 H 10 V 2 H 8 V 4 H 6 C 4.897,4 4,4.897 4,6 V 8 H 2 v 2 h 2 v 4 H 2 v 2 h 2 v 2 c 0,1.103 0.897,2 2,2 h 2 v 2 h 2 v -2 h 4 v 2 h 2 v -2 h 2 c 1.103,0 2,-0.897 2,-2 v -2 h 2 v -2 h -2 v -4 h 2 V 8 H 20 Z M 6,18 V 6 h 12 l 0.002,12 z"
       id="path2-0" /></g><g
     id="g23"
     transform="matrix(3.0888253,0,0,3.0888253,436.8136,283.84809)"><path
       d="M 18.948,11.112 C 18.511,7.67 15.563,5 12.004,5 9.248,5 6.854,6.611 5.761,9.15 3.613,9.792 2.004,11.82 2.004,14 c 0,2.757 2.243,5 5,5 h 1 v -2 h -1 c -1.654,0 -3,-1.346 -3,-3 0,-1.404 1.199,-2.757 2.673,-3.016 L 7.258,10.882 7.45,10.324 C 8.153,8.273 9.898,7 12.004,7 c 2.757,0 5,2.243 5,5 v 1 h 1 c 1.103,0 2,0.897 2,2 0,1.103 -0.897,2 -2,2 h -2 v 2 h 2 c 2.206,0 4,-1.794 4,-4 a 4.008,4.008 0 0 0 -3.056,-3.888 z"
       id="path1-4" /><path
       d="m 13.004,14 v -4 h -2 v 4 h -3 l 4,5 4,-5 z"
       id="path2-1" /></g><path
     d="m 658.26604,320.20952 a 6.2225951,6.2225951 0 0 0 -2.18724,0.4138 l -7.46089,-6.10748 c 0.18357,-0.66581 0.31424,-1.35652 0.31424,-2.08457 0,-4.31225 -3.46598,-7.77824 -7.77824,-7.77824 -4.31226,0 -7.77825,3.46599 -7.77825,7.77824 0,1.23208 0.31113,2.38015 0.81516,3.4131 l -9.05076,10.69664 a 6.4092729,6.4092729 0 0 0 -1.09829,-0.1089 c -0.55692,0 -1.08273,0.0933 -1.59298,0.23024 l -7.97426,-7.97426 c 0.14001,-0.50714 0.23335,-1.03295 0.23335,-1.58987 0,-3.44732 -2.77528,-6.2226 -6.2226,-6.2226 -3.44731,0 -6.22259,2.77528 -6.22259,6.2226 0,3.44732 2.77528,6.22259 6.22259,6.22259 0.55693,0 1.08274,-0.0933 1.59299,-0.23023 l 7.97425,7.97425 a 5.9301331,5.9301331 0 0 0 -0.23334,1.58988 c 0,3.44731 2.77527,6.22259 6.22259,6.22259 3.44732,0 6.2226,-2.77528 6.2226,-6.22259 0,-0.73738 -0.14934,-1.4312 -0.38269,-2.08768 l 9.06321,-10.70909 c 0.70626,0.20535 1.43742,0.35158 2.20902,0.35158 a 7.7160176,7.7160176 0 0 0 3.5251,-0.87428 l 7.464,6.10748 a 6.462165,6.462165 0 0 0 -0.0996,0.98939 c 0,3.44732 2.77528,6.2226 6.22259,6.2226 3.44732,0 6.2226,-2.77528 6.2226,-6.2226 0,-3.44732 -2.77528,-6.22259 -6.2226,-6.22259 z"
     id="path1-8"
     style="stroke-width:3.1113" /></svg>
